<?xml version="1.0" encoding="iso-8859-1"?>
<!-- Uploaded to: SVG Repo, www.svgrepo.com, Generator: SVG Repo Mixer Tools -->
<svg fill="#e08709" height="800px" width="800px" version="1.1" id="Layer_1" xmlns="http://www.w3.org/2000/svg" xmlns:xlink="http://www.w3.org/1999/xlink" 
	 viewBox="0 0 511.999 511.999" xml:space="preserve">
<g>
	<g>
		<path d="M342.578,119.73h-33.801V88.502c0-4.442-3.601-8.043-8.043-8.043h-30.44c-4.442,0-8.043,3.601-8.043,8.043v31.229h-33.801
			c-4.442,0-8.043,3.601-8.043,8.043v30.44c0,4.442,3.601,8.043,8.043,8.043h33.801v88.969c0,4.442,3.601,8.043,8.043,8.043h30.44
			c4.442,0,8.043-3.601,8.043-8.043v-88.969h33.801c4.442,0,8.043-3.601,8.043-8.043v-30.44
			C350.621,123.331,347.02,119.73,342.578,119.73z M334.536,150.172h-33.801c-4.442,0-8.043,3.601-8.043,8.043v88.969h-14.355
			v-88.969c0-4.442-3.601-8.043-8.043-8.043h-33.801v-14.355h33.801c4.442,0,8.043-3.601,8.043-8.043V96.545h14.355v31.229
			c0,4.442,3.601,8.043,8.043,8.043h33.801V150.172z"/>
	</g>
</g>
<g>
	<g>
		<path d="M390.364,0H154.638h-33.003C92.353,0,68.53,23.823,68.53,53.104v24.957c0,4.442,3.601,8.043,8.043,8.043
			s8.043-3.601,8.043-8.043V53.104c0-20.412,16.607-37.019,37.019-37.019h24.96v299.537c-0.171,0.016-0.34,0.038-0.51,0.055
			c-0.201,0.02-0.4,0.043-0.601,0.064c-17.857,1.893-35.044,9.665-48.405,21.631c-4.168,3.732-7.951,7.897-11.316,12.365
			c-0.096,0.129-0.19,0.26-0.286,0.388c-0.288,0.388-0.579,0.775-0.861,1.169V110.234c0-4.442-3.601-8.043-8.043-8.043
			c-4.442,0-8.043,3.601-8.043,8.043v291.123c0,47.479,38.628,86.107,86.108,86.107h45.403v16.493c0,3.229,1.93,6.144,4.903,7.404
			c2.97,1.261,6.409,0.622,8.731-1.624l25.843-24.994l25.843,24.994c1.53,1.48,3.545,2.262,5.592,2.262
			c1.058,0,2.125-0.209,3.138-0.639c2.973-1.26,4.903-4.176,4.903-7.404v-16.493h73.988c4.442,0,8.043-3.601,8.043-8.043
			c0-4.442-3.601-8.043-8.043-8.043h-73.988v-25.156h148.388v25.157H385.04c-4.442,0-8.043,3.601-8.043,8.043
			c0,4.442,3.601,8.043,8.043,8.043h50.385c4.443,0,8.044-3.601,8.044-8.043v-41.242v-73.643v-41.242V53.104
			C443.468,23.823,419.646,0,390.364,0z M262.91,438.178v41.242v5.569l-17.8-17.216c-1.559-1.508-3.574-2.262-5.591-2.262
			c-2.017,0-4.032,0.754-5.591,2.262l-17.8,17.216v-5.569v-41.242v-28.779h46.783V438.178z M427.384,430.136h-0.001H278.996v-28.779
			c0-4.443-3.601-8.043-8.043-8.043h-62.868c-4.442,0-8.043,3.6-8.043,8.043v28.779h-45.403c-15.869,0-28.779-12.91-28.779-28.779
			c0-15.869,12.91-28.779,28.779-28.779h272.745V430.136z M427.384,315.249h-0.001H225.67c-4.442,0-8.043,3.601-8.043,8.043
			c0,4.442,3.601,8.043,8.043,8.043h201.714v25.157H154.639c-24.738,0-44.865,20.126-44.865,44.864
			c0,24.738,20.126,44.865,44.865,44.865h45.403v25.157h-45.403c-38.61,0-70.022-31.412-70.022-70.021s31.412-70.022,70.022-70.022
			h38.86c4.442,0,8.043-3.601,8.043-8.043s-3.601-8.043-8.043-8.043h-30.818V16.085h227.683c20.412,0,37.019,16.607,37.019,37.019
			V315.249z"/>
	</g>
</g>
</svg>